ISO-10303-21;
HEADER;
FILE_DESCRIPTION(('FreeCAD Model'),'2;1');
FILE_NAME('Open CASCADE Shape Model','2026-02-19T21:43:08',(''),(''),
  'Open CASCADE STEP processor 7.8','FreeCAD','Unknown');
FILE_SCHEMA(('AUTOMOTIVE_DESIGN { 1 0 10303 214 1 1 1 1 }'));
ENDSEC;
DATA;
#1 = APPLICATION_PROTOCOL_DEFINITION('international standard',
  'automotive_design',2000,#2);
#2 = APPLICATION_CONTEXT(
  'core data for automotive mechanical design processes');
#3 = SHAPE_DEFINITION_REPRESENTATION(#4,#10);
#4 = PRODUCT_DEFINITION_SHAPE('','',#5);
#5 = PRODUCT_DEFINITION('design','',#6,#9);
#6 = PRODUCT_DEFINITION_FORMATION('','',#7);
#7 = PRODUCT('Body','Body','',(#8));
#8 = PRODUCT_CONTEXT('',#2,'mechanical');
#9 = PRODUCT_DEFINITION_CONTEXT('part definition',#2,'design');
#10 = ADVANCED_BREP_SHAPE_REPRESENTATION('',(#11,#15),#1510);
#11 = AXIS2_PLACEMENT_3D('',#12,#13,#14);
#12 = CARTESIAN_POINT('',(0.,0.,0.));
#13 = DIRECTION('',(0.,0.,1.));
#14 = DIRECTION('',(1.,0.,-0.));
#15 = MANIFOLD_SOLID_BREP('',#16);
#16 = CLOSED_SHELL('',(#17,#68,#101,#134,#167,#200,#276,#302,#328,#461,
    #487,#520,#546,#579,#674,#807,#824,#849,#937,#969,#986,#998,#1010,
    #1034,#1058,#1096,#1113,#1130,#1147,#1159,#1184,#1209,#1221,#1233,
    #1257,#1281,#1305,#1329,#1346,#1363,#1378,#1390,#1405,#1447,#1464,
    #1481,#1498));
#17 = ADVANCED_FACE('',(#18,#52),#63,.F.);
#18 = FACE_BOUND('',#19,.F.);
#19 = EDGE_LOOP('',(#20,#30,#38,#46));
#20 = ORIENTED_EDGE('',*,*,#21,.T.);
#21 = EDGE_CURVE('',#22,#24,#26,.T.);
#22 = VERTEX_POINT('',#23);
#23 = CARTESIAN_POINT('',(49.,15.,20.));
#24 = VERTEX_POINT('',#25);
#25 = CARTESIAN_POINT('',(-49.,15.,20.));
#26 = LINE('',#27,#28);
#27 = CARTESIAN_POINT('',(50.,15.,20.));
#28 = VECTOR('',#29,1.);
#29 = DIRECTION('',(-1.,0.,0.));
#30 = ORIENTED_EDGE('',*,*,#31,.F.);
#31 = EDGE_CURVE('',#32,#24,#34,.T.);
#32 = VERTEX_POINT('',#33);
#33 = CARTESIAN_POINT('',(-49.,15.,2.));
#34 = LINE('',#35,#36);
#35 = CARTESIAN_POINT('',(-49.,15.,2.));
#36 = VECTOR('',#37,1.);
#37 = DIRECTION('',(0.,0.,1.));
#38 = ORIENTED_EDGE('',*,*,#39,.F.);
#39 = EDGE_CURVE('',#40,#32,#42,.T.);
#40 = VERTEX_POINT('',#41);
#41 = CARTESIAN_POINT('',(49.,15.,2.));
#42 = LINE('',#43,#44);
#43 = CARTESIAN_POINT('',(50.,15.,2.));
#44 = VECTOR('',#45,1.);
#45 = DIRECTION('',(-1.,0.,0.));
#46 = ORIENTED_EDGE('',*,*,#47,.T.);
#47 = EDGE_CURVE('',#40,#22,#48,.T.);
#48 = LINE('',#49,#50);
#49 = CARTESIAN_POINT('',(49.,15.,2.));
#50 = VECTOR('',#51,1.);
#51 = DIRECTION('',(0.,0.,1.));
#52 = FACE_BOUND('',#53,.F.);
#53 = EDGE_LOOP('',(#54));
#54 = ORIENTED_EDGE('',*,*,#55,.T.);
#55 = EDGE_CURVE('',#56,#56,#58,.T.);
#56 = VERTEX_POINT('',#57);
#57 = CARTESIAN_POINT('',(32.,15.,11.));
#58 = CIRCLE('',#59,6.);
#59 = AXIS2_PLACEMENT_3D('',#60,#61,#62);
#60 = CARTESIAN_POINT('',(38.,15.,11.));
#61 = DIRECTION('',(0.,1.,-0.));
#62 = DIRECTION('',(-1.,0.,0.));
#63 = PLANE('',#64);
#64 = AXIS2_PLACEMENT_3D('',#65,#66,#67);
#65 = CARTESIAN_POINT('',(50.,15.,0.));
#66 = DIRECTION('',(0.,-1.,0.));
#67 = DIRECTION('',(-1.,0.,0.));
#68 = ADVANCED_FACE('',(#69),#96,.T.);
#69 = FACE_BOUND('',#70,.F.);
#70 = EDGE_LOOP('',(#71,#72,#81,#89));
#71 = ORIENTED_EDGE('',*,*,#21,.F.);
#72 = ORIENTED_EDGE('',*,*,#73,.T.);
#73 = EDGE_CURVE('',#22,#74,#76,.T.);
#74 = VERTEX_POINT('',#75);
#75 = CARTESIAN_POINT('',(49.,13.,22.));
#76 = CIRCLE('',#77,2.);
#77 = AXIS2_PLACEMENT_3D('',#78,#79,#80);
#78 = CARTESIAN_POINT('',(49.,13.,20.));
#79 = DIRECTION('',(1.,0.,0.));
#80 = DIRECTION('',(0.,1.,0.));
#81 = ORIENTED_EDGE('',*,*,#82,.T.);
#82 = EDGE_CURVE('',#74,#83,#85,.T.);
#83 = VERTEX_POINT('',#84);
#84 = CARTESIAN_POINT('',(-49.,13.,22.));
#85 = LINE('',#86,#87);
#86 = CARTESIAN_POINT('',(50.,13.,22.));
#87 = VECTOR('',#88,1.);
#88 = DIRECTION('',(-1.,0.,0.));
#89 = ORIENTED_EDGE('',*,*,#90,.F.);
#90 = EDGE_CURVE('',#24,#83,#91,.T.);
#91 = CIRCLE('',#92,2.);
#92 = AXIS2_PLACEMENT_3D('',#93,#94,#95);
#93 = CARTESIAN_POINT('',(-49.,13.,20.));
#94 = DIRECTION('',(1.,0.,0.));
#95 = DIRECTION('',(-0.,1.,0.));
#96 = CYLINDRICAL_SURFACE('',#97,2.);
#97 = AXIS2_PLACEMENT_3D('',#98,#99,#100);
#98 = CARTESIAN_POINT('',(50.,13.,20.));
#99 = DIRECTION('',(-1.,0.,0.));
#100 = DIRECTION('',(0.,1.,0.));
#101 = ADVANCED_FACE('',(#102),#129,.T.);
#102 = FACE_BOUND('',#103,.T.);
#103 = EDGE_LOOP('',(#104,#113,#121,#128));
#104 = ORIENTED_EDGE('',*,*,#105,.T.);
#105 = EDGE_CURVE('',#32,#106,#108,.T.);
#106 = VERTEX_POINT('',#107);
#107 = CARTESIAN_POINT('',(-50.,14.,2.));
#108 = CIRCLE('',#109,1.);
#109 = AXIS2_PLACEMENT_3D('',#110,#111,#112);
#110 = CARTESIAN_POINT('',(-49.,14.,2.));
#111 = DIRECTION('',(0.,6.E-17,1.));
#112 = DIRECTION('',(0.,1.,-6.E-17));
#113 = ORIENTED_EDGE('',*,*,#114,.T.);
#114 = EDGE_CURVE('',#106,#115,#117,.T.);
#115 = VERTEX_POINT('',#116);
#116 = CARTESIAN_POINT('',(-50.,14.,20.));
#117 = LINE('',#118,#119);
#118 = CARTESIAN_POINT('',(-50.,14.,2.));
#119 = VECTOR('',#120,1.);
#120 = DIRECTION('',(0.,0.,1.));
#121 = ORIENTED_EDGE('',*,*,#122,.F.);
#122 = EDGE_CURVE('',#24,#115,#123,.T.);
#123 = CIRCLE('',#124,1.);
#124 = AXIS2_PLACEMENT_3D('',#125,#126,#127);
#125 = CARTESIAN_POINT('',(-49.,14.,20.));
#126 = DIRECTION('',(0.,-0.,1.));
#127 = DIRECTION('',(0.,1.,0.));
#128 = ORIENTED_EDGE('',*,*,#31,.F.);
#129 = CYLINDRICAL_SURFACE('',#130,1.);
#130 = AXIS2_PLACEMENT_3D('',#131,#132,#133);
#131 = CARTESIAN_POINT('',(-49.,14.,2.));
#132 = DIRECTION('',(0.,0.,1.));
#133 = DIRECTION('',(0.,1.,0.));
#134 = ADVANCED_FACE('',(#135),#162,.T.);
#135 = FACE_BOUND('',#136,.F.);
#136 = EDGE_LOOP('',(#137,#146,#154,#161));
#137 = ORIENTED_EDGE('',*,*,#138,.T.);
#138 = EDGE_CURVE('',#40,#139,#141,.T.);
#139 = VERTEX_POINT('',#140);
#140 = CARTESIAN_POINT('',(50.,14.,2.));
#141 = CIRCLE('',#142,1.);
#142 = AXIS2_PLACEMENT_3D('',#143,#144,#145);
#143 = CARTESIAN_POINT('',(49.,14.,2.));
#144 = DIRECTION('',(0.,-6.E-17,-1.));
#145 = DIRECTION('',(0.,1.,-6.E-17));
#146 = ORIENTED_EDGE('',*,*,#147,.T.);
#147 = EDGE_CURVE('',#139,#148,#150,.T.);
#148 = VERTEX_POINT('',#149);
#149 = CARTESIAN_POINT('',(50.,14.,20.));
#150 = LINE('',#151,#152);
#151 = CARTESIAN_POINT('',(50.,14.,2.));
#152 = VECTOR('',#153,1.);
#153 = DIRECTION('',(0.,0.,1.));
#154 = ORIENTED_EDGE('',*,*,#155,.F.);
#155 = EDGE_CURVE('',#22,#148,#156,.T.);
#156 = CIRCLE('',#157,1.);
#157 = AXIS2_PLACEMENT_3D('',#158,#159,#160);
#158 = CARTESIAN_POINT('',(49.,14.,20.));
#159 = DIRECTION('',(0.,0.,-1.));
#160 = DIRECTION('',(0.,1.,0.));
#161 = ORIENTED_EDGE('',*,*,#47,.F.);
#162 = CYLINDRICAL_SURFACE('',#163,1.);
#163 = AXIS2_PLACEMENT_3D('',#164,#165,#166);
#164 = CARTESIAN_POINT('',(49.,14.,2.));
#165 = DIRECTION('',(0.,0.,1.));
#166 = DIRECTION('',(0.,1.,0.));
#167 = ADVANCED_FACE('',(#168),#195,.T.);
#168 = FACE_BOUND('',#169,.T.);
#169 = EDGE_LOOP('',(#170,#171,#180,#188));
#170 = ORIENTED_EDGE('',*,*,#39,.F.);
#171 = ORIENTED_EDGE('',*,*,#172,.F.);
#172 = EDGE_CURVE('',#173,#40,#175,.T.);
#173 = VERTEX_POINT('',#174);
#174 = CARTESIAN_POINT('',(49.,13.,0.));
#175 = CIRCLE('',#176,2.);
#176 = AXIS2_PLACEMENT_3D('',#177,#178,#179);
#177 = CARTESIAN_POINT('',(49.,13.,2.));
#178 = DIRECTION('',(1.,-0.,0.));
#179 = DIRECTION('',(0.,0.,-1.));
#180 = ORIENTED_EDGE('',*,*,#181,.T.);
#181 = EDGE_CURVE('',#173,#182,#184,.T.);
#182 = VERTEX_POINT('',#183);
#183 = CARTESIAN_POINT('',(-49.,13.,0.));
#184 = LINE('',#185,#186);
#185 = CARTESIAN_POINT('',(50.,13.,-4.4E-16));
#186 = VECTOR('',#187,1.);
#187 = DIRECTION('',(-1.,0.,0.));
#188 = ORIENTED_EDGE('',*,*,#189,.T.);
#189 = EDGE_CURVE('',#182,#32,#190,.T.);
#190 = CIRCLE('',#191,2.);
#191 = AXIS2_PLACEMENT_3D('',#192,#193,#194);
#192 = CARTESIAN_POINT('',(-49.,13.,2.));
#193 = DIRECTION('',(1.,-0.,0.));
#194 = DIRECTION('',(0.,0.,-1.));
#195 = CYLINDRICAL_SURFACE('',#196,2.);
#196 = AXIS2_PLACEMENT_3D('',#197,#198,#199);
#197 = CARTESIAN_POINT('',(50.,13.,2.));
#198 = DIRECTION('',(-1.,0.,0.));
#199 = DIRECTION('',(0.,1.,0.));
#200 = ADVANCED_FACE('',(#201),#271,.F.);
#201 = FACE_BOUND('',#202,.F.);
#202 = EDGE_LOOP('',(#203,#211,#212,#213,#222,#230,#239,#247,#256,#264)
  );
#203 = ORIENTED_EDGE('',*,*,#204,.F.);
#204 = EDGE_CURVE('',#56,#205,#207,.T.);
#205 = VERTEX_POINT('',#206);
#206 = CARTESIAN_POINT('',(32.,-30.,11.));
#207 = LINE('',#208,#209);
#208 = CARTESIAN_POINT('',(32.,15.,11.));
#209 = VECTOR('',#210,1.);
#210 = DIRECTION('',(0.,-1.,2.2E-16));
#211 = ORIENTED_EDGE('',*,*,#55,.F.);
#212 = ORIENTED_EDGE('',*,*,#204,.T.);
#213 = ORIENTED_EDGE('',*,*,#214,.T.);
#214 = EDGE_CURVE('',#205,#215,#217,.T.);
#215 = VERTEX_POINT('',#216);
#216 = CARTESIAN_POINT('',(35.,-30.,16.196152422707));
#217 = CIRCLE('',#218,6.);
#218 = AXIS2_PLACEMENT_3D('',#219,#220,#221);
#219 = CARTESIAN_POINT('',(38.,-30.,11.));
#220 = DIRECTION('',(0.,1.,-2.2E-16));
#221 = DIRECTION('',(-1.,0.,0.));
#222 = ORIENTED_EDGE('',*,*,#223,.T.);
#223 = EDGE_CURVE('',#215,#224,#226,.T.);
#224 = VERTEX_POINT('',#225);
#225 = CARTESIAN_POINT('',(35.,-22.,16.196152422707));
#226 = LINE('',#227,#228);
#227 = CARTESIAN_POINT('',(35.,15.,16.196152422707));
#228 = VECTOR('',#229,1.);
#229 = DIRECTION('',(0.,1.,-2.2E-16));
#230 = ORIENTED_EDGE('',*,*,#231,.F.);
#231 = EDGE_CURVE('',#232,#224,#234,.T.);
#232 = VERTEX_POINT('',#233);
#233 = CARTESIAN_POINT('',(34.683375209645,-22.,16.));
#234 = CIRCLE('',#235,6.);
#235 = AXIS2_PLACEMENT_3D('',#236,#237,#238);
#236 = CARTESIAN_POINT('',(38.,-22.,11.));
#237 = DIRECTION('',(0.,1.,-2.2E-16));
#238 = DIRECTION('',(-1.,0.,0.));
#239 = ORIENTED_EDGE('',*,*,#240,.T.);
#240 = EDGE_CURVE('',#232,#241,#243,.T.);
#241 = VERTEX_POINT('',#242);
#242 = CARTESIAN_POINT('',(34.683375209645,-17.,16.));
#243 = LINE('',#244,#245);
#244 = CARTESIAN_POINT('',(34.683375209645,15.,16.));
#245 = VECTOR('',#246,1.);
#246 = DIRECTION('',(0.,1.,-2.2E-16));
#247 = ORIENTED_EDGE('',*,*,#248,.T.);
#248 = EDGE_CURVE('',#241,#249,#251,.T.);
#249 = VERTEX_POINT('',#250);
#250 = CARTESIAN_POINT('',(41.,-17.,16.196152422707));
#251 = CIRCLE('',#252,6.);
#252 = AXIS2_PLACEMENT_3D('',#253,#254,#255);
#253 = CARTESIAN_POINT('',(38.,-17.,11.));
#254 = DIRECTION('',(0.,1.,-2.2E-16));
#255 = DIRECTION('',(-1.,0.,0.));
#256 = ORIENTED_EDGE('',*,*,#257,.F.);
#257 = EDGE_CURVE('',#258,#249,#260,.T.);
#258 = VERTEX_POINT('',#259);
#259 = CARTESIAN_POINT('',(41.,-30.,16.196152422707));
#260 = LINE('',#261,#262);
#261 = CARTESIAN_POINT('',(41.,15.,16.196152422707));
#262 = VECTOR('',#263,1.);
#263 = DIRECTION('',(0.,1.,-2.2E-16));
#264 = ORIENTED_EDGE('',*,*,#265,.T.);
#265 = EDGE_CURVE('',#258,#205,#266,.T.);
#266 = CIRCLE('',#267,6.);
#267 = AXIS2_PLACEMENT_3D('',#268,#269,#270);
#268 = CARTESIAN_POINT('',(38.,-30.,11.));
#269 = DIRECTION('',(0.,1.,-2.2E-16));
#270 = DIRECTION('',(-1.,0.,0.));
#271 = CYLINDRICAL_SURFACE('',#272,6.);
#272 = AXIS2_PLACEMENT_3D('',#273,#274,#275);
#273 = CARTESIAN_POINT('',(38.,15.,11.));
#274 = DIRECTION('',(0.,1.,-2.2E-16));
#275 = DIRECTION('',(-1.,0.,0.));
#276 = ADVANCED_FACE('',(#277),#297,.T.);
#277 = FACE_BOUND('',#278,.F.);
#278 = EDGE_LOOP('',(#279,#280,#281,#290));
#279 = ORIENTED_EDGE('',*,*,#122,.F.);
#280 = ORIENTED_EDGE('',*,*,#90,.T.);
#281 = ORIENTED_EDGE('',*,*,#282,.T.);
#282 = EDGE_CURVE('',#83,#283,#285,.T.);
#283 = VERTEX_POINT('',#284);
#284 = CARTESIAN_POINT('',(-50.,13.,21.));
#285 = CIRCLE('',#286,1.);
#286 = AXIS2_PLACEMENT_3D('',#287,#288,#289);
#287 = CARTESIAN_POINT('',(-49.,13.,21.));
#288 = DIRECTION('',(0.,-1.,6.E-17));
#289 = DIRECTION('',(0.,6.E-17,1.));
#290 = ORIENTED_EDGE('',*,*,#291,.F.);
#291 = EDGE_CURVE('',#115,#283,#292,.T.);
#292 = CIRCLE('',#293,1.);
#293 = AXIS2_PLACEMENT_3D('',#294,#295,#296);
#294 = CARTESIAN_POINT('',(-50.,13.,20.));
#295 = DIRECTION('',(1.,0.,0.));
#296 = DIRECTION('',(-0.,1.,0.));
#297 = TOROIDAL_SURFACE('',#298,1.,1.);
#298 = AXIS2_PLACEMENT_3D('',#299,#300,#301);
#299 = CARTESIAN_POINT('',(-49.,13.,20.));
#300 = DIRECTION('',(-1.,-0.,-0.));
#301 = DIRECTION('',(0.,1.,0.));
#302 = ADVANCED_FACE('',(#303),#323,.T.);
#303 = FACE_BOUND('',#304,.T.);
#304 = EDGE_LOOP('',(#305,#306,#307,#316));
#305 = ORIENTED_EDGE('',*,*,#155,.F.);
#306 = ORIENTED_EDGE('',*,*,#73,.T.);
#307 = ORIENTED_EDGE('',*,*,#308,.T.);
#308 = EDGE_CURVE('',#74,#309,#311,.T.);
#309 = VERTEX_POINT('',#310);
#310 = CARTESIAN_POINT('',(50.,13.,21.));
#311 = CIRCLE('',#312,1.);
#312 = AXIS2_PLACEMENT_3D('',#313,#314,#315);
#313 = CARTESIAN_POINT('',(49.,13.,21.));
#314 = DIRECTION('',(0.,1.,-6.E-17));
#315 = DIRECTION('',(0.,6.E-17,1.));
#316 = ORIENTED_EDGE('',*,*,#317,.F.);
#317 = EDGE_CURVE('',#148,#309,#318,.T.);
#318 = CIRCLE('',#319,1.);
#319 = AXIS2_PLACEMENT_3D('',#320,#321,#322);
#320 = CARTESIAN_POINT('',(50.,13.,20.));
#321 = DIRECTION('',(1.,0.,0.));
#322 = DIRECTION('',(0.,1.,0.));
#323 = TOROIDAL_SURFACE('',#324,1.,1.);
#324 = AXIS2_PLACEMENT_3D('',#325,#326,#327);
#325 = CARTESIAN_POINT('',(49.,13.,20.));
#326 = DIRECTION('',(1.,0.,0.));
#327 = DIRECTION('',(0.,1.,0.));
#328 = ADVANCED_FACE('',(#329,#434,#445),#456,.T.);
#329 = FACE_BOUND('',#330,.T.);
#330 = EDGE_LOOP('',(#331,#332,#340,#348,#356,#364,#372,#380,#388,#396,
    #404,#412,#420,#428));
#331 = ORIENTED_EDGE('',*,*,#82,.T.);
#332 = ORIENTED_EDGE('',*,*,#333,.T.);
#333 = EDGE_CURVE('',#83,#334,#336,.T.);
#334 = VERTEX_POINT('',#335);
#335 = CARTESIAN_POINT('',(-49.,-30.,22.));
#336 = LINE('',#337,#338);
#337 = CARTESIAN_POINT('',(-49.,13.,22.));
#338 = VECTOR('',#339,1.);
#339 = DIRECTION('',(0.,-1.,0.));
#340 = ORIENTED_EDGE('',*,*,#341,.T.);
#341 = EDGE_CURVE('',#334,#342,#344,.T.);
#342 = VERTEX_POINT('',#343);
#343 = CARTESIAN_POINT('',(-48.,-30.,22.));
#344 = LINE('',#345,#346);
#345 = CARTESIAN_POINT('',(-50.,-30.,22.));
#346 = VECTOR('',#347,1.);
#347 = DIRECTION('',(1.,0.,0.));
#348 = ORIENTED_EDGE('',*,*,#349,.F.);
#349 = EDGE_CURVE('',#350,#342,#352,.T.);
#350 = VERTEX_POINT('',#351);
#351 = CARTESIAN_POINT('',(-48.,7.E-15,22.));
#352 = LINE('',#353,#354);
#353 = CARTESIAN_POINT('',(-48.,-18.75,22.));
#354 = VECTOR('',#355,1.);
#355 = DIRECTION('',(0.,-1.,0.));
#356 = ORIENTED_EDGE('',*,*,#357,.F.);
#357 = EDGE_CURVE('',#358,#350,#360,.T.);
#358 = VERTEX_POINT('',#359);
#359 = CARTESIAN_POINT('',(-33.,5.E-15,22.));
#360 = LINE('',#361,#362);
#361 = CARTESIAN_POINT('',(-20.25,2.04E-15,22.));
#362 = VECTOR('',#363,1.);
#363 = DIRECTION('',(-1.,0.,0.));
#364 = ORIENTED_EDGE('',*,*,#365,.F.);
#365 = EDGE_CURVE('',#366,#358,#368,.T.);
#366 = VERTEX_POINT('',#367);
#367 = CARTESIAN_POINT('',(-33.,-17.,22.));
#368 = LINE('',#369,#370);
#369 = CARTESIAN_POINT('',(-33.,-18.75,22.));
#370 = VECTOR('',#371,1.);
#371 = DIRECTION('',(0.,1.,0.));
#372 = ORIENTED_EDGE('',*,*,#373,.F.);
#373 = EDGE_CURVE('',#374,#366,#376,.T.);
#374 = VERTEX_POINT('',#375);
#375 = CARTESIAN_POINT('',(-6.,-17.,22.));
#376 = LINE('',#377,#378);
#377 = CARTESIAN_POINT('',(41.,-17.,22.));
#378 = VECTOR('',#379,1.);
#379 = DIRECTION('',(-1.,0.,0.));
#380 = ORIENTED_EDGE('',*,*,#381,.F.);
#381 = EDGE_CURVE('',#382,#374,#384,.T.);
#382 = VERTEX_POINT('',#383);
#383 = CARTESIAN_POINT('',(-6.,-11.,22.));
#384 = LINE('',#385,#386);
#385 = CARTESIAN_POINT('',(-6.,-11.,22.));
#386 = VECTOR('',#387,1.);
#387 = DIRECTION('',(0.,-1.,0.));
#388 = ORIENTED_EDGE('',*,*,#389,.F.);
#389 = EDGE_CURVE('',#390,#382,#392,.T.);
#390 = VERTEX_POINT('',#391);
#391 = CARTESIAN_POINT('',(10.,-11.,22.));
#392 = LINE('',#393,#394);
#393 = CARTESIAN_POINT('',(10.,-11.,22.));
#394 = VECTOR('',#395,1.);
#395 = DIRECTION('',(-1.,0.,0.));
#396 = ORIENTED_EDGE('',*,*,#397,.F.);
#397 = EDGE_CURVE('',#398,#390,#400,.T.);
#398 = VERTEX_POINT('',#399);
#399 = CARTESIAN_POINT('',(10.,-17.,22.));
#400 = LINE('',#401,#402);
#401 = CARTESIAN_POINT('',(10.,-27.,22.));
#402 = VECTOR('',#403,1.);
#403 = DIRECTION('',(0.,1.,0.));
#404 = ORIENTED_EDGE('',*,*,#405,.F.);
#405 = EDGE_CURVE('',#406,#398,#408,.T.);
#406 = VERTEX_POINT('',#407);
#407 = CARTESIAN_POINT('',(41.,-17.,22.));
#408 = LINE('',#409,#410);
#409 = CARTESIAN_POINT('',(41.,-17.,22.));
#410 = VECTOR('',#411,1.);
#411 = DIRECTION('',(-1.,0.,0.));
#412 = ORIENTED_EDGE('',*,*,#413,.F.);
#413 = EDGE_CURVE('',#414,#406,#416,.T.);
#414 = VERTEX_POINT('',#415);
#415 = CARTESIAN_POINT('',(41.,-30.,22.));
#416 = LINE('',#417,#418);
#417 = CARTESIAN_POINT('',(41.,-32.,22.));
#418 = VECTOR('',#419,1.);
#419 = DIRECTION('',(0.,1.,0.));
#420 = ORIENTED_EDGE('',*,*,#421,.T.);
#421 = EDGE_CURVE('',#414,#422,#424,.T.);
#422 = VERTEX_POINT('',#423);
#423 = CARTESIAN_POINT('',(49.,-30.,22.));
#424 = LINE('',#425,#426);
#425 = CARTESIAN_POINT('',(-50.,-30.,22.));
#426 = VECTOR('',#427,1.);
#427 = DIRECTION('',(1.,0.,0.));
#428 = ORIENTED_EDGE('',*,*,#429,.F.);
#429 = EDGE_CURVE('',#74,#422,#430,.T.);
#430 = LINE('',#431,#432);
#431 = CARTESIAN_POINT('',(49.,13.,22.));
#432 = VECTOR('',#433,1.);
#433 = DIRECTION('',(-0.,-1.,-0.));
#434 = FACE_BOUND('',#435,.T.);
#435 = EDGE_LOOP('',(#436));
#436 = ORIENTED_EDGE('',*,*,#437,.F.);
#437 = EDGE_CURVE('',#438,#438,#440,.T.);
#438 = VERTEX_POINT('',#439);
#439 = CARTESIAN_POINT('',(-15.6,0.,22.));
#440 = CIRCLE('',#441,2.15);
#441 = AXIS2_PLACEMENT_3D('',#442,#443,#444);
#442 = CARTESIAN_POINT('',(-17.75,0.,22.));
#443 = DIRECTION('',(0.,0.,1.));
#444 = DIRECTION('',(1.,0.,0.));
#445 = FACE_BOUND('',#446,.T.);
#446 = EDGE_LOOP('',(#447));
#447 = ORIENTED_EDGE('',*,*,#448,.F.);
#448 = EDGE_CURVE('',#449,#449,#451,.T.);
#449 = VERTEX_POINT('',#450);
#450 = CARTESIAN_POINT('',(19.9,0.,22.));
#451 = CIRCLE('',#452,2.15);
#452 = AXIS2_PLACEMENT_3D('',#453,#454,#455);
#453 = CARTESIAN_POINT('',(17.75,0.,22.));
#454 = DIRECTION('',(0.,0.,1.));
#455 = DIRECTION('',(1.,0.,0.));
#456 = PLANE('',#457);
#457 = AXIS2_PLACEMENT_3D('',#458,#459,#460);
#458 = CARTESIAN_POINT('',(-9.41E-15,-7.5,22.));
#459 = DIRECTION('',(0.,0.,1.));
#460 = DIRECTION('',(1.,0.,0.));
#461 = ADVANCED_FACE('',(#462),#482,.T.);
#462 = FACE_BOUND('',#463,.F.);
#463 = EDGE_LOOP('',(#464,#473,#474,#475));
#464 = ORIENTED_EDGE('',*,*,#465,.F.);
#465 = EDGE_CURVE('',#182,#466,#468,.T.);
#466 = VERTEX_POINT('',#467);
#467 = CARTESIAN_POINT('',(-50.,13.,1.));
#468 = CIRCLE('',#469,1.);
#469 = AXIS2_PLACEMENT_3D('',#470,#471,#472);
#470 = CARTESIAN_POINT('',(-49.,13.,1.));
#471 = DIRECTION('',(0.,1.,0.));
#472 = DIRECTION('',(0.,0.,-1.));
#473 = ORIENTED_EDGE('',*,*,#189,.T.);
#474 = ORIENTED_EDGE('',*,*,#105,.T.);
#475 = ORIENTED_EDGE('',*,*,#476,.F.);
#476 = EDGE_CURVE('',#466,#106,#477,.T.);
#477 = CIRCLE('',#478,1.);
#478 = AXIS2_PLACEMENT_3D('',#479,#480,#481);
#479 = CARTESIAN_POINT('',(-50.,13.,2.));
#480 = DIRECTION('',(1.,-0.,0.));
#481 = DIRECTION('',(0.,0.,-1.));
#482 = TOROIDAL_SURFACE('',#483,1.,1.);
#483 = AXIS2_PLACEMENT_3D('',#484,#485,#486);
#484 = CARTESIAN_POINT('',(-49.,13.,2.));
#485 = DIRECTION('',(-1.,-0.,-0.));
#486 = DIRECTION('',(0.,0.,-1.));
#487 = ADVANCED_FACE('',(#488),#515,.F.);
#488 = FACE_BOUND('',#489,.F.);
#489 = EDGE_LOOP('',(#490,#500,#506,#507,#508,#509));
#490 = ORIENTED_EDGE('',*,*,#491,.F.);
#491 = EDGE_CURVE('',#492,#494,#496,.T.);
#492 = VERTEX_POINT('',#493);
#493 = CARTESIAN_POINT('',(-50.,-30.,1.));
#494 = VERTEX_POINT('',#495);
#495 = CARTESIAN_POINT('',(-50.,-30.,21.));
#496 = LINE('',#497,#498);
#497 = CARTESIAN_POINT('',(-50.,-30.,0.));
#498 = VECTOR('',#499,1.);
#499 = DIRECTION('',(0.,0.,1.));
#500 = ORIENTED_EDGE('',*,*,#501,.T.);
#501 = EDGE_CURVE('',#492,#466,#502,.T.);
#502 = LINE('',#503,#504);
#503 = CARTESIAN_POINT('',(-50.,-30.,1.));
#504 = VECTOR('',#505,1.);
#505 = DIRECTION('',(0.,1.,0.));
#506 = ORIENTED_EDGE('',*,*,#476,.T.);
#507 = ORIENTED_EDGE('',*,*,#114,.T.);
#508 = ORIENTED_EDGE('',*,*,#291,.T.);
#509 = ORIENTED_EDGE('',*,*,#510,.T.);
#510 = EDGE_CURVE('',#283,#494,#511,.T.);
#511 = LINE('',#512,#513);
#512 = CARTESIAN_POINT('',(-50.,13.,21.));
#513 = VECTOR('',#514,1.);
#514 = DIRECTION('',(0.,-1.,0.));
#515 = PLANE('',#516);
#516 = AXIS2_PLACEMENT_3D('',#517,#518,#519);
#517 = CARTESIAN_POINT('',(-50.,15.,0.));
#518 = DIRECTION('',(1.,0.,0.));
#519 = DIRECTION('',(0.,-1.,0.));
#520 = ADVANCED_FACE('',(#521),#541,.T.);
#521 = FACE_BOUND('',#522,.T.);
#522 = EDGE_LOOP('',(#523,#532,#533,#534));
#523 = ORIENTED_EDGE('',*,*,#524,.F.);
#524 = EDGE_CURVE('',#173,#525,#527,.T.);
#525 = VERTEX_POINT('',#526);
#526 = CARTESIAN_POINT('',(50.,13.,1.));
#527 = CIRCLE('',#528,1.);
#528 = AXIS2_PLACEMENT_3D('',#529,#530,#531);
#529 = CARTESIAN_POINT('',(49.,13.,1.));
#530 = DIRECTION('',(0.,-1.,0.));
#531 = DIRECTION('',(0.,0.,-1.));
#532 = ORIENTED_EDGE('',*,*,#172,.T.);
#533 = ORIENTED_EDGE('',*,*,#138,.T.);
#534 = ORIENTED_EDGE('',*,*,#535,.F.);
#535 = EDGE_CURVE('',#525,#139,#536,.T.);
#536 = CIRCLE('',#537,1.);
#537 = AXIS2_PLACEMENT_3D('',#538,#539,#540);
#538 = CARTESIAN_POINT('',(50.,13.,2.));
#539 = DIRECTION('',(1.,-0.,0.));
#540 = DIRECTION('',(0.,0.,-1.));
#541 = TOROIDAL_SURFACE('',#542,1.,1.);
#542 = AXIS2_PLACEMENT_3D('',#543,#544,#545);
#543 = CARTESIAN_POINT('',(49.,13.,2.));
#544 = DIRECTION('',(1.,0.,0.));
#545 = DIRECTION('',(0.,0.,-1.));
#546 = ADVANCED_FACE('',(#547),#574,.F.);
#547 = FACE_BOUND('',#548,.F.);
#548 = EDGE_LOOP('',(#549,#559,#565,#566,#567,#568));
#549 = ORIENTED_EDGE('',*,*,#550,.T.);
#550 = EDGE_CURVE('',#551,#553,#555,.T.);
#551 = VERTEX_POINT('',#552);
#552 = CARTESIAN_POINT('',(50.,-30.,1.));
#553 = VERTEX_POINT('',#554);
#554 = CARTESIAN_POINT('',(50.,-30.,21.));
#555 = LINE('',#556,#557);
#556 = CARTESIAN_POINT('',(50.,-30.,0.));
#557 = VECTOR('',#558,1.);
#558 = DIRECTION('',(0.,0.,1.));
#559 = ORIENTED_EDGE('',*,*,#560,.F.);
#560 = EDGE_CURVE('',#309,#553,#561,.T.);
#561 = LINE('',#562,#563);
#562 = CARTESIAN_POINT('',(50.,13.,21.));
#563 = VECTOR('',#564,1.);
#564 = DIRECTION('',(-0.,-1.,-0.));
#565 = ORIENTED_EDGE('',*,*,#317,.F.);
#566 = ORIENTED_EDGE('',*,*,#147,.F.);
#567 = ORIENTED_EDGE('',*,*,#535,.F.);
#568 = ORIENTED_EDGE('',*,*,#569,.F.);
#569 = EDGE_CURVE('',#551,#525,#570,.T.);
#570 = LINE('',#571,#572);
#571 = CARTESIAN_POINT('',(50.,-30.,1.));
#572 = VECTOR('',#573,1.);
#573 = DIRECTION('',(0.,1.,0.));
#574 = PLANE('',#575);
#575 = AXIS2_PLACEMENT_3D('',#576,#577,#578);
#576 = CARTESIAN_POINT('',(50.,-30.,0.));
#577 = DIRECTION('',(-1.,0.,0.));
#578 = DIRECTION('',(0.,1.,0.));
#579 = ADVANCED_FACE('',(#580),#669,.F.);
#580 = FACE_BOUND('',#581,.F.);
#581 = EDGE_LOOP('',(#582,#583,#591,#599,#607,#615,#623,#631,#639,#647,
    #655,#663));
#582 = ORIENTED_EDGE('',*,*,#181,.T.);
#583 = ORIENTED_EDGE('',*,*,#584,.F.);
#584 = EDGE_CURVE('',#585,#182,#587,.T.);
#585 = VERTEX_POINT('',#586);
#586 = CARTESIAN_POINT('',(-49.,-30.,-0.));
#587 = LINE('',#588,#589);
#588 = CARTESIAN_POINT('',(-49.,-30.,-2.2E-16));
#589 = VECTOR('',#590,1.);
#590 = DIRECTION('',(0.,1.,0.));
#591 = ORIENTED_EDGE('',*,*,#592,.T.);
#592 = EDGE_CURVE('',#585,#593,#595,.T.);
#593 = VERTEX_POINT('',#594);
#594 = CARTESIAN_POINT('',(-28.,-30.,0.));
#595 = LINE('',#596,#597);
#596 = CARTESIAN_POINT('',(-50.,-30.,0.));
#597 = VECTOR('',#598,1.);
#598 = DIRECTION('',(1.,0.,0.));
#599 = ORIENTED_EDGE('',*,*,#600,.T.);
#600 = EDGE_CURVE('',#593,#601,#603,.T.);
#601 = VERTEX_POINT('',#602);
#602 = CARTESIAN_POINT('',(-28.,11.,0.));
#603 = LINE('',#604,#605);
#604 = CARTESIAN_POINT('',(-28.,-89.,0.));
#605 = VECTOR('',#606,1.);
#606 = DIRECTION('',(0.,1.,0.));
#607 = ORIENTED_EDGE('',*,*,#608,.T.);
#608 = EDGE_CURVE('',#601,#609,#611,.T.);
#609 = VERTEX_POINT('',#610);
#610 = CARTESIAN_POINT('',(-7.5,11.,0.));
#611 = LINE('',#612,#613);
#612 = CARTESIAN_POINT('',(-28.,11.,0.));
#613 = VECTOR('',#614,1.);
#614 = DIRECTION('',(1.,0.,0.));
#615 = ORIENTED_EDGE('',*,*,#616,.T.);
#616 = EDGE_CURVE('',#609,#617,#619,.T.);
#617 = VERTEX_POINT('',#618);
#618 = CARTESIAN_POINT('',(-7.5,-30.,0.));
#619 = LINE('',#620,#621);
#620 = CARTESIAN_POINT('',(-7.5,11.,0.));
#621 = VECTOR('',#622,1.);
#622 = DIRECTION('',(0.,-1.,0.));
#623 = ORIENTED_EDGE('',*,*,#624,.T.);
#624 = EDGE_CURVE('',#617,#625,#627,.T.);
#625 = VERTEX_POINT('',#626);
#626 = CARTESIAN_POINT('',(7.5,-30.,0.));
#627 = LINE('',#628,#629);
#628 = CARTESIAN_POINT('',(-50.,-30.,0.));
#629 = VECTOR('',#630,1.);
#630 = DIRECTION('',(1.,0.,0.));
#631 = ORIENTED_EDGE('',*,*,#632,.T.);
#632 = EDGE_CURVE('',#625,#633,#635,.T.);
#633 = VERTEX_POINT('',#634);
#634 = CARTESIAN_POINT('',(7.5,11.,0.));
#635 = LINE('',#636,#637);
#636 = CARTESIAN_POINT('',(7.5,-89.,0.));
#637 = VECTOR('',#638,1.);
#638 = DIRECTION('',(0.,1.,0.));
#639 = ORIENTED_EDGE('',*,*,#640,.T.);
#640 = EDGE_CURVE('',#633,#641,#643,.T.);
#641 = VERTEX_POINT('',#642);
#642 = CARTESIAN_POINT('',(28.,11.,0.));
#643 = LINE('',#644,#645);
#644 = CARTESIAN_POINT('',(7.5,11.,0.));
#645 = VECTOR('',#646,1.);
#646 = DIRECTION('',(1.,0.,0.));
#647 = ORIENTED_EDGE('',*,*,#648,.T.);
#648 = EDGE_CURVE('',#641,#649,#651,.T.);
#649 = VERTEX_POINT('',#650);
#650 = CARTESIAN_POINT('',(28.,-30.,0.));
#651 = LINE('',#652,#653);
#652 = CARTESIAN_POINT('',(28.,11.,0.));
#653 = VECTOR('',#654,1.);
#654 = DIRECTION('',(0.,-1.,0.));
#655 = ORIENTED_EDGE('',*,*,#656,.T.);
#656 = EDGE_CURVE('',#649,#657,#659,.T.);
#657 = VERTEX_POINT('',#658);
#658 = CARTESIAN_POINT('',(49.,-30.,0.));
#659 = LINE('',#660,#661);
#660 = CARTESIAN_POINT('',(-50.,-30.,0.));
#661 = VECTOR('',#662,1.);
#662 = DIRECTION('',(1.,0.,0.));
#663 = ORIENTED_EDGE('',*,*,#664,.T.);
#664 = EDGE_CURVE('',#657,#173,#665,.T.);
#665 = LINE('',#666,#667);
#666 = CARTESIAN_POINT('',(49.,-30.,-2.2E-16));
#667 = VECTOR('',#668,1.);
#668 = DIRECTION('',(0.,1.,0.));
#669 = PLANE('',#670);
#670 = AXIS2_PLACEMENT_3D('',#671,#672,#673);
#671 = CARTESIAN_POINT('',(-9.41E-15,-7.5,0.));
#672 = DIRECTION('',(0.,0.,1.));
#673 = DIRECTION('',(1.,0.,0.));
#674 = ADVANCED_FACE('',(#675),#802,.F.);
#675 = FACE_BOUND('',#676,.F.);
#676 = EDGE_LOOP('',(#677,#678,#685,#686,#693,#694,#702,#710,#718,#726,
    #732,#733,#734,#740,#741,#748,#749,#756,#757,#765,#773,#779,#780,
    #788,#796));
#677 = ORIENTED_EDGE('',*,*,#592,.F.);
#678 = ORIENTED_EDGE('',*,*,#679,.T.);
#679 = EDGE_CURVE('',#585,#492,#680,.T.);
#680 = CIRCLE('',#681,1.);
#681 = AXIS2_PLACEMENT_3D('',#682,#683,#684);
#682 = CARTESIAN_POINT('',(-49.,-30.,1.));
#683 = DIRECTION('',(0.,1.,0.));
#684 = DIRECTION('',(0.,-0.,1.));
#685 = ORIENTED_EDGE('',*,*,#491,.T.);
#686 = ORIENTED_EDGE('',*,*,#687,.F.);
#687 = EDGE_CURVE('',#334,#494,#688,.T.);
#688 = CIRCLE('',#689,1.);
#689 = AXIS2_PLACEMENT_3D('',#690,#691,#692);
#690 = CARTESIAN_POINT('',(-49.,-30.,21.));
#691 = DIRECTION('',(0.,-1.,0.));
#692 = DIRECTION('',(0.,0.,-1.));
#693 = ORIENTED_EDGE('',*,*,#341,.T.);
#694 = ORIENTED_EDGE('',*,*,#695,.T.);
#695 = EDGE_CURVE('',#342,#696,#698,.T.);
#696 = VERTEX_POINT('',#697);
#697 = CARTESIAN_POINT('',(-48.,-30.,8.));
#698 = LINE('',#699,#700);
#699 = CARTESIAN_POINT('',(-48.,-30.,25.));
#700 = VECTOR('',#701,1.);
#701 = DIRECTION('',(0.,0.,-1.));
#702 = ORIENTED_EDGE('',*,*,#703,.T.);
#703 = EDGE_CURVE('',#696,#704,#706,.T.);
#704 = VERTEX_POINT('',#705);
#705 = CARTESIAN_POINT('',(-33.,-30.,8.));
#706 = LINE('',#707,#708);
#707 = CARTESIAN_POINT('',(-48.,-30.,8.));
#708 = VECTOR('',#709,1.);
#709 = DIRECTION('',(1.,0.,0.));
#710 = ORIENTED_EDGE('',*,*,#711,.T.);
#711 = EDGE_CURVE('',#704,#712,#714,.T.);
#712 = VERTEX_POINT('',#713);
#713 = CARTESIAN_POINT('',(-33.,-30.,22.));
#714 = LINE('',#715,#716);
#715 = CARTESIAN_POINT('',(-33.,-30.,8.));
#716 = VECTOR('',#717,1.);
#717 = DIRECTION('',(0.,0.,1.));
#718 = ORIENTED_EDGE('',*,*,#719,.T.);
#719 = EDGE_CURVE('',#712,#720,#722,.T.);
#720 = VERTEX_POINT('',#721);
#721 = CARTESIAN_POINT('',(35.,-30.,22.));
#722 = LINE('',#723,#724);
#723 = CARTESIAN_POINT('',(-50.,-30.,22.));
#724 = VECTOR('',#725,1.);
#725 = DIRECTION('',(1.,0.,0.));
#726 = ORIENTED_EDGE('',*,*,#727,.F.);
#727 = EDGE_CURVE('',#215,#720,#728,.T.);
#728 = LINE('',#729,#730);
#729 = CARTESIAN_POINT('',(35.,-30.,11.));
#730 = VECTOR('',#731,1.);
#731 = DIRECTION('',(0.,0.,1.));
#732 = ORIENTED_EDGE('',*,*,#214,.F.);
#733 = ORIENTED_EDGE('',*,*,#265,.F.);
#734 = ORIENTED_EDGE('',*,*,#735,.F.);
#735 = EDGE_CURVE('',#414,#258,#736,.T.);
#736 = LINE('',#737,#738);
#737 = CARTESIAN_POINT('',(41.,-30.,9.5));
#738 = VECTOR('',#739,1.);
#739 = DIRECTION('',(0.,0.,-1.));
#740 = ORIENTED_EDGE('',*,*,#421,.T.);
#741 = ORIENTED_EDGE('',*,*,#742,.T.);
#742 = EDGE_CURVE('',#422,#553,#743,.T.);
#743 = CIRCLE('',#744,1.);
#744 = AXIS2_PLACEMENT_3D('',#745,#746,#747);
#745 = CARTESIAN_POINT('',(49.,-30.,21.));
#746 = DIRECTION('',(0.,1.,0.));
#747 = DIRECTION('',(0.,0.,-1.));
#748 = ORIENTED_EDGE('',*,*,#550,.F.);
#749 = ORIENTED_EDGE('',*,*,#750,.F.);
#750 = EDGE_CURVE('',#657,#551,#751,.T.);
#751 = CIRCLE('',#752,1.);
#752 = AXIS2_PLACEMENT_3D('',#753,#754,#755);
#753 = CARTESIAN_POINT('',(49.,-30.,1.));
#754 = DIRECTION('',(0.,-1.,0.));
#755 = DIRECTION('',(0.,0.,1.));
#756 = ORIENTED_EDGE('',*,*,#656,.F.);
#757 = ORIENTED_EDGE('',*,*,#758,.F.);
#758 = EDGE_CURVE('',#759,#649,#761,.T.);
#759 = VERTEX_POINT('',#760);
#760 = CARTESIAN_POINT('',(28.,-30.,15.));
#761 = LINE('',#762,#763);
#762 = CARTESIAN_POINT('',(28.,-30.,0.));
#763 = VECTOR('',#764,1.);
#764 = DIRECTION('',(0.,0.,-1.));
#765 = ORIENTED_EDGE('',*,*,#766,.F.);
#766 = EDGE_CURVE('',#767,#759,#769,.T.);
#767 = VERTEX_POINT('',#768);
#768 = CARTESIAN_POINT('',(7.5,-30.,15.));
#769 = LINE('',#770,#771);
#770 = CARTESIAN_POINT('',(-25.,-30.,15.));
#771 = VECTOR('',#772,1.);
#772 = DIRECTION('',(1.,0.,0.));
#773 = ORIENTED_EDGE('',*,*,#774,.F.);
#774 = EDGE_CURVE('',#625,#767,#775,.T.);
#775 = LINE('',#776,#777);
#776 = CARTESIAN_POINT('',(7.5,-30.,0.));
#777 = VECTOR('',#778,1.);
#778 = DIRECTION('',(0.,0.,1.));
#779 = ORIENTED_EDGE('',*,*,#624,.F.);
#780 = ORIENTED_EDGE('',*,*,#781,.F.);
#781 = EDGE_CURVE('',#782,#617,#784,.T.);
#782 = VERTEX_POINT('',#783);
#783 = CARTESIAN_POINT('',(-7.5,-30.,15.));
#784 = LINE('',#785,#786);
#785 = CARTESIAN_POINT('',(-7.5,-30.,0.));
#786 = VECTOR('',#787,1.);
#787 = DIRECTION('',(0.,0.,-1.));
#788 = ORIENTED_EDGE('',*,*,#789,.F.);
#789 = EDGE_CURVE('',#790,#782,#792,.T.);
#790 = VERTEX_POINT('',#791);
#791 = CARTESIAN_POINT('',(-28.,-30.,15.));
#792 = LINE('',#793,#794);
#793 = CARTESIAN_POINT('',(-25.,-30.,15.));
#794 = VECTOR('',#795,1.);
#795 = DIRECTION('',(1.,0.,0.));
#796 = ORIENTED_EDGE('',*,*,#797,.F.);
#797 = EDGE_CURVE('',#593,#790,#798,.T.);
#798 = LINE('',#799,#800);
#799 = CARTESIAN_POINT('',(-28.,-30.,0.));
#800 = VECTOR('',#801,1.);
#801 = DIRECTION('',(0.,0.,1.));
#802 = PLANE('',#803);
#803 = AXIS2_PLACEMENT_3D('',#804,#805,#806);
#804 = CARTESIAN_POINT('',(-50.,-30.,0.));
#805 = DIRECTION('',(0.,1.,0.));
#806 = DIRECTION('',(1.,0.,0.));
#807 = ADVANCED_FACE('',(#808),#819,.F.);
#808 = FACE_BOUND('',#809,.F.);
#809 = EDGE_LOOP('',(#810,#811,#812,#813));
#810 = ORIENTED_EDGE('',*,*,#413,.F.);
#811 = ORIENTED_EDGE('',*,*,#735,.T.);
#812 = ORIENTED_EDGE('',*,*,#257,.T.);
#813 = ORIENTED_EDGE('',*,*,#814,.F.);
#814 = EDGE_CURVE('',#406,#249,#815,.T.);
#815 = LINE('',#816,#817);
#816 = CARTESIAN_POINT('',(41.,-17.,22.));
#817 = VECTOR('',#818,1.);
#818 = DIRECTION('',(-0.,-0.,-1.));
#819 = PLANE('',#820);
#820 = AXIS2_PLACEMENT_3D('',#821,#822,#823);
#821 = CARTESIAN_POINT('',(41.,-24.5,19.));
#822 = DIRECTION('',(1.,0.,0.));
#823 = DIRECTION('',(0.,0.,1.));
#824 = ADVANCED_FACE('',(#825),#844,.F.);
#825 = FACE_BOUND('',#826,.F.);
#826 = EDGE_LOOP('',(#827,#828,#829,#830,#838));
#827 = ORIENTED_EDGE('',*,*,#405,.F.);
#828 = ORIENTED_EDGE('',*,*,#814,.T.);
#829 = ORIENTED_EDGE('',*,*,#248,.F.);
#830 = ORIENTED_EDGE('',*,*,#831,.T.);
#831 = EDGE_CURVE('',#241,#832,#834,.T.);
#832 = VERTEX_POINT('',#833);
#833 = CARTESIAN_POINT('',(10.,-17.,16.));
#834 = LINE('',#835,#836);
#835 = CARTESIAN_POINT('',(41.,-17.,16.));
#836 = VECTOR('',#837,1.);
#837 = DIRECTION('',(-1.,0.,0.));
#838 = ORIENTED_EDGE('',*,*,#839,.F.);
#839 = EDGE_CURVE('',#398,#832,#840,.T.);
#840 = LINE('',#841,#842);
#841 = CARTESIAN_POINT('',(10.,-17.,22.));
#842 = VECTOR('',#843,1.);
#843 = DIRECTION('',(0.,0.,-1.));
#844 = PLANE('',#845);
#845 = AXIS2_PLACEMENT_3D('',#846,#847,#848);
#846 = CARTESIAN_POINT('',(41.,-17.,22.));
#847 = DIRECTION('',(0.,1.,0.));
#848 = DIRECTION('',(-1.,0.,0.));
#849 = ADVANCED_FACE('',(#850),#932,.T.);
#850 = FACE_BOUND('',#851,.T.);
#851 = EDGE_LOOP('',(#852,#860,#861,#862,#870,#878,#886,#894,#902,#910,
    #918,#926));
#852 = ORIENTED_EDGE('',*,*,#853,.T.);
#853 = EDGE_CURVE('',#854,#232,#856,.T.);
#854 = VERTEX_POINT('',#855);
#855 = CARTESIAN_POINT('',(10.,-22.,16.));
#856 = LINE('',#857,#858);
#857 = CARTESIAN_POINT('',(-39.,-22.,16.));
#858 = VECTOR('',#859,1.);
#859 = DIRECTION('',(1.,0.,0.));
#860 = ORIENTED_EDGE('',*,*,#240,.T.);
#861 = ORIENTED_EDGE('',*,*,#831,.T.);
#862 = ORIENTED_EDGE('',*,*,#863,.T.);
#863 = EDGE_CURVE('',#832,#864,#866,.T.);
#864 = VERTEX_POINT('',#865);
#865 = CARTESIAN_POINT('',(10.,-11.,16.));
#866 = LINE('',#867,#868);
#867 = CARTESIAN_POINT('',(10.,-27.,16.));
#868 = VECTOR('',#869,1.);
#869 = DIRECTION('',(0.,1.,0.));
#870 = ORIENTED_EDGE('',*,*,#871,.T.);
#871 = EDGE_CURVE('',#864,#872,#874,.T.);
#872 = VERTEX_POINT('',#873);
#873 = CARTESIAN_POINT('',(-6.,-11.,16.));
#874 = LINE('',#875,#876);
#875 = CARTESIAN_POINT('',(10.,-11.,16.));
#876 = VECTOR('',#877,1.);
#877 = DIRECTION('',(-1.,0.,0.));
#878 = ORIENTED_EDGE('',*,*,#879,.T.);
#879 = EDGE_CURVE('',#872,#880,#882,.T.);
#880 = VERTEX_POINT('',#881);
#881 = CARTESIAN_POINT('',(-6.,-17.,16.));
#882 = LINE('',#883,#884);
#883 = CARTESIAN_POINT('',(-6.,-11.,16.));
#884 = VECTOR('',#885,1.);
#885 = DIRECTION('',(0.,-1.,0.));
#886 = ORIENTED_EDGE('',*,*,#887,.T.);
#887 = EDGE_CURVE('',#880,#888,#890,.T.);
#888 = VERTEX_POINT('',#889);
#889 = CARTESIAN_POINT('',(-33.,-17.,16.));
#890 = LINE('',#891,#892);
#891 = CARTESIAN_POINT('',(41.,-17.,16.));
#892 = VECTOR('',#893,1.);
#893 = DIRECTION('',(-1.,0.,0.));
#894 = ORIENTED_EDGE('',*,*,#895,.T.);
#895 = EDGE_CURVE('',#888,#896,#898,.T.);
#896 = VERTEX_POINT('',#897);
#897 = CARTESIAN_POINT('',(-33.,-22.,16.));
#898 = LINE('',#899,#900);
#899 = CARTESIAN_POINT('',(-33.,-25.1409774436,16.));
#900 = VECTOR('',#901,1.);
#901 = DIRECTION('',(0.,-1.,0.));
#902 = ORIENTED_EDGE('',*,*,#903,.T.);
#903 = EDGE_CURVE('',#896,#904,#906,.T.);
#904 = VERTEX_POINT('',#905);
#905 = CARTESIAN_POINT('',(-6.,-22.,16.));
#906 = LINE('',#907,#908);
#907 = CARTESIAN_POINT('',(-39.,-22.,16.));
#908 = VECTOR('',#909,1.);
#909 = DIRECTION('',(1.,0.,0.));
#910 = ORIENTED_EDGE('',*,*,#911,.T.);
#911 = EDGE_CURVE('',#904,#912,#914,.T.);
#912 = VERTEX_POINT('',#913);
#913 = CARTESIAN_POINT('',(-6.,-27.,16.));
#914 = LINE('',#915,#916);
#915 = CARTESIAN_POINT('',(-6.,-11.,16.));
#916 = VECTOR('',#917,1.);
#917 = DIRECTION('',(0.,-1.,0.));
#918 = ORIENTED_EDGE('',*,*,#919,.T.);
#919 = EDGE_CURVE('',#912,#920,#922,.T.);
#920 = VERTEX_POINT('',#921);
#921 = CARTESIAN_POINT('',(10.,-27.,16.));
#922 = LINE('',#923,#924);
#923 = CARTESIAN_POINT('',(-6.,-27.,16.));
#924 = VECTOR('',#925,1.);
#925 = DIRECTION('',(1.,0.,0.));
#926 = ORIENTED_EDGE('',*,*,#927,.T.);
#927 = EDGE_CURVE('',#920,#854,#928,.T.);
#928 = LINE('',#929,#930);
#929 = CARTESIAN_POINT('',(10.,-27.,16.));
#930 = VECTOR('',#931,1.);
#931 = DIRECTION('',(0.,1.,0.));
#932 = PLANE('',#933);
#933 = AXIS2_PLACEMENT_3D('',#934,#935,#936);
#934 = CARTESIAN_POINT('',(0.993945282229,-19.30880312296,16.));
#935 = DIRECTION('',(0.,0.,1.));
#936 = DIRECTION('',(1.,0.,0.));
#937 = ADVANCED_FACE('',(#938),#964,.F.);
#938 = FACE_BOUND('',#939,.F.);
#939 = EDGE_LOOP('',(#940,#950,#956,#957,#958));
#940 = ORIENTED_EDGE('',*,*,#941,.F.);
#941 = EDGE_CURVE('',#942,#944,#946,.T.);
#942 = VERTEX_POINT('',#943);
#943 = CARTESIAN_POINT('',(10.,-22.,22.));
#944 = VERTEX_POINT('',#945);
#945 = CARTESIAN_POINT('',(35.,-22.,22.));
#946 = LINE('',#947,#948);
#947 = CARTESIAN_POINT('',(-39.,-22.,22.));
#948 = VECTOR('',#949,1.);
#949 = DIRECTION('',(1.,0.,0.));
#950 = ORIENTED_EDGE('',*,*,#951,.F.);
#951 = EDGE_CURVE('',#854,#942,#952,.T.);
#952 = LINE('',#953,#954);
#953 = CARTESIAN_POINT('',(10.,-22.,22.));
#954 = VECTOR('',#955,1.);
#955 = DIRECTION('',(0.,0.,1.));
#956 = ORIENTED_EDGE('',*,*,#853,.T.);
#957 = ORIENTED_EDGE('',*,*,#231,.T.);
#958 = ORIENTED_EDGE('',*,*,#959,.F.);
#959 = EDGE_CURVE('',#944,#224,#960,.T.);
#960 = LINE('',#961,#962);
#961 = CARTESIAN_POINT('',(35.,-22.,22.));
#962 = VECTOR('',#963,1.);
#963 = DIRECTION('',(-0.,-0.,-1.));
#964 = PLANE('',#965);
#965 = AXIS2_PLACEMENT_3D('',#966,#967,#968);
#966 = CARTESIAN_POINT('',(-39.,-22.,22.));
#967 = DIRECTION('',(0.,-1.,0.));
#968 = DIRECTION('',(1.,0.,0.));
#969 = ADVANCED_FACE('',(#970),#981,.F.);
#970 = FACE_BOUND('',#971,.F.);
#971 = EDGE_LOOP('',(#972,#978,#979,#980));
#972 = ORIENTED_EDGE('',*,*,#973,.F.);
#973 = EDGE_CURVE('',#944,#720,#974,.T.);
#974 = LINE('',#975,#976);
#975 = CARTESIAN_POINT('',(35.,-22.,22.));
#976 = VECTOR('',#977,1.);
#977 = DIRECTION('',(0.,-1.,0.));
#978 = ORIENTED_EDGE('',*,*,#959,.T.);
#979 = ORIENTED_EDGE('',*,*,#223,.F.);
#980 = ORIENTED_EDGE('',*,*,#727,.T.);
#981 = PLANE('',#982);
#982 = AXIS2_PLACEMENT_3D('',#983,#984,#985);
#983 = CARTESIAN_POINT('',(35.,-22.,22.));
#984 = DIRECTION('',(-1.,0.,0.));
#985 = DIRECTION('',(0.,-1.,0.));
#986 = ADVANCED_FACE('',(#987),#993,.T.);
#987 = FACE_BOUND('',#988,.T.);
#988 = EDGE_LOOP('',(#989,#990,#991,#992));
#989 = ORIENTED_EDGE('',*,*,#282,.T.);
#990 = ORIENTED_EDGE('',*,*,#510,.T.);
#991 = ORIENTED_EDGE('',*,*,#687,.F.);
#992 = ORIENTED_EDGE('',*,*,#333,.F.);
#993 = CYLINDRICAL_SURFACE('',#994,1.);
#994 = AXIS2_PLACEMENT_3D('',#995,#996,#997);
#995 = CARTESIAN_POINT('',(-49.,13.,21.));
#996 = DIRECTION('',(0.,-1.,0.));
#997 = DIRECTION('',(0.,0.,1.));
#998 = ADVANCED_FACE('',(#999),#1005,.T.);
#999 = FACE_BOUND('',#1000,.F.);
#1000 = EDGE_LOOP('',(#1001,#1002,#1003,#1004));
#1001 = ORIENTED_EDGE('',*,*,#308,.T.);
#1002 = ORIENTED_EDGE('',*,*,#560,.T.);
#1003 = ORIENTED_EDGE('',*,*,#742,.F.);
#1004 = ORIENTED_EDGE('',*,*,#429,.F.);
#1005 = CYLINDRICAL_SURFACE('',#1006,1.);
#1006 = AXIS2_PLACEMENT_3D('',#1007,#1008,#1009);
#1007 = CARTESIAN_POINT('',(49.,13.,21.));
#1008 = DIRECTION('',(-0.,-1.,-0.));
#1009 = DIRECTION('',(0.,0.,1.));
#1010 = ADVANCED_FACE('',(#1011),#1029,.F.);
#1011 = FACE_BOUND('',#1012,.F.);
#1012 = EDGE_LOOP('',(#1013,#1014,#1015,#1023));
#1013 = ORIENTED_EDGE('',*,*,#695,.F.);
#1014 = ORIENTED_EDGE('',*,*,#349,.F.);
#1015 = ORIENTED_EDGE('',*,*,#1016,.T.);
#1016 = EDGE_CURVE('',#350,#1017,#1019,.T.);
#1017 = VERTEX_POINT('',#1018);
#1018 = CARTESIAN_POINT('',(-48.,0.,8.));
#1019 = LINE('',#1020,#1021);
#1020 = CARTESIAN_POINT('',(-48.,0.,25.));
#1021 = VECTOR('',#1022,1.);
#1022 = DIRECTION('',(0.,0.,-1.));
#1023 = ORIENTED_EDGE('',*,*,#1024,.F.);
#1024 = EDGE_CURVE('',#696,#1017,#1025,.T.);
#1025 = LINE('',#1026,#1027);
#1026 = CARTESIAN_POINT('',(-48.,-30.,8.));
#1027 = VECTOR('',#1028,1.);
#1028 = DIRECTION('',(0.,1.,-2.2E-16));
#1029 = PLANE('',#1030);
#1030 = AXIS2_PLACEMENT_3D('',#1031,#1032,#1033);
#1031 = CARTESIAN_POINT('',(-48.,-30.,25.));
#1032 = DIRECTION('',(-1.,0.,0.));
#1033 = DIRECTION('',(-0.,-2.2E-16,-1.));
#1034 = ADVANCED_FACE('',(#1035),#1053,.F.);
#1035 = FACE_BOUND('',#1036,.F.);
#1036 = EDGE_LOOP('',(#1037,#1038,#1039,#1047));
#1037 = ORIENTED_EDGE('',*,*,#1016,.F.);
#1038 = ORIENTED_EDGE('',*,*,#357,.F.);
#1039 = ORIENTED_EDGE('',*,*,#1040,.F.);
#1040 = EDGE_CURVE('',#1041,#358,#1043,.T.);
#1041 = VERTEX_POINT('',#1042);
#1042 = CARTESIAN_POINT('',(-33.,0.,8.));
#1043 = LINE('',#1044,#1045);
#1044 = CARTESIAN_POINT('',(-33.,0.,8.));
#1045 = VECTOR('',#1046,1.);
#1046 = DIRECTION('',(0.,0.,1.));
#1047 = ORIENTED_EDGE('',*,*,#1048,.F.);
#1048 = EDGE_CURVE('',#1017,#1041,#1049,.T.);
#1049 = LINE('',#1050,#1051);
#1050 = CARTESIAN_POINT('',(-48.,0.,8.));
#1051 = VECTOR('',#1052,1.);
#1052 = DIRECTION('',(1.,0.,0.));
#1053 = PLANE('',#1054);
#1054 = AXIS2_PLACEMENT_3D('',#1055,#1056,#1057);
#1055 = CARTESIAN_POINT('',(-40.5,0.,16.5));
#1056 = DIRECTION('',(0.,1.,-4.2E-16));
#1057 = DIRECTION('',(0.,4.2E-16,1.));
#1058 = ADVANCED_FACE('',(#1059),#1091,.F.);
#1059 = FACE_BOUND('',#1060,.F.);
#1060 = EDGE_LOOP('',(#1061,#1062,#1068,#1069,#1070,#1076,#1077,#1085));
#1061 = ORIENTED_EDGE('',*,*,#711,.F.);
#1062 = ORIENTED_EDGE('',*,*,#1063,.T.);
#1063 = EDGE_CURVE('',#704,#1041,#1064,.T.);
#1064 = LINE('',#1065,#1066);
#1065 = CARTESIAN_POINT('',(-33.,-30.,8.));
#1066 = VECTOR('',#1067,1.);
#1067 = DIRECTION('',(0.,1.,-2.2E-16));
#1068 = ORIENTED_EDGE('',*,*,#1040,.T.);
#1069 = ORIENTED_EDGE('',*,*,#365,.F.);
#1070 = ORIENTED_EDGE('',*,*,#1071,.F.);
#1071 = EDGE_CURVE('',#888,#366,#1072,.T.);
#1072 = LINE('',#1073,#1074);
#1073 = CARTESIAN_POINT('',(-33.,-17.,15.));
#1074 = VECTOR('',#1075,1.);
#1075 = DIRECTION('',(0.,0.,1.));
#1076 = ORIENTED_EDGE('',*,*,#895,.T.);
#1077 = ORIENTED_EDGE('',*,*,#1078,.F.);
#1078 = EDGE_CURVE('',#1079,#896,#1081,.T.);
#1079 = VERTEX_POINT('',#1080);
#1080 = CARTESIAN_POINT('',(-33.,-22.,22.));
#1081 = LINE('',#1082,#1083);
#1082 = CARTESIAN_POINT('',(-33.,-22.,15.));
#1083 = VECTOR('',#1084,1.);
#1084 = DIRECTION('',(0.,0.,-1.));
#1085 = ORIENTED_EDGE('',*,*,#1086,.F.);
#1086 = EDGE_CURVE('',#712,#1079,#1087,.T.);
#1087 = LINE('',#1088,#1089);
#1088 = CARTESIAN_POINT('',(-33.,-18.75,22.));
#1089 = VECTOR('',#1090,1.);
#1090 = DIRECTION('',(0.,1.,0.));
#1091 = PLANE('',#1092);
#1092 = AXIS2_PLACEMENT_3D('',#1093,#1094,#1095);
#1093 = CARTESIAN_POINT('',(-33.,-30.,8.));
#1094 = DIRECTION('',(1.,0.,0.));
#1095 = DIRECTION('',(0.,2.2E-16,1.));
#1096 = ADVANCED_FACE('',(#1097),#1108,.F.);
#1097 = FACE_BOUND('',#1098,.F.);
#1098 = EDGE_LOOP('',(#1099,#1100,#1101,#1102));
#1099 = ORIENTED_EDGE('',*,*,#397,.F.);
#1100 = ORIENTED_EDGE('',*,*,#839,.T.);
#1101 = ORIENTED_EDGE('',*,*,#863,.T.);
#1102 = ORIENTED_EDGE('',*,*,#1103,.F.);
#1103 = EDGE_CURVE('',#390,#864,#1104,.T.);
#1104 = LINE('',#1105,#1106);
#1105 = CARTESIAN_POINT('',(10.,-11.,22.));
#1106 = VECTOR('',#1107,1.);
#1107 = DIRECTION('',(-0.,-0.,-1.));
#1108 = PLANE('',#1109);
#1109 = AXIS2_PLACEMENT_3D('',#1110,#1111,#1112);
#1110 = CARTESIAN_POINT('',(10.,-27.,22.));
#1111 = DIRECTION('',(1.,0.,0.));
#1112 = DIRECTION('',(0.,1.,0.));
#1113 = ADVANCED_FACE('',(#1114),#1125,.F.);
#1114 = FACE_BOUND('',#1115,.F.);
#1115 = EDGE_LOOP('',(#1116,#1117,#1123,#1124));
#1116 = ORIENTED_EDGE('',*,*,#373,.F.);
#1117 = ORIENTED_EDGE('',*,*,#1118,.F.);
#1118 = EDGE_CURVE('',#880,#374,#1119,.T.);
#1119 = LINE('',#1120,#1121);
#1120 = CARTESIAN_POINT('',(-6.,-17.,22.));
#1121 = VECTOR('',#1122,1.);
#1122 = DIRECTION('',(0.,0.,1.));
#1123 = ORIENTED_EDGE('',*,*,#887,.T.);
#1124 = ORIENTED_EDGE('',*,*,#1071,.T.);
#1125 = PLANE('',#1126);
#1126 = AXIS2_PLACEMENT_3D('',#1127,#1128,#1129);
#1127 = CARTESIAN_POINT('',(41.,-17.,22.));
#1128 = DIRECTION('',(0.,1.,0.));
#1129 = DIRECTION('',(-1.,0.,0.));
#1130 = ADVANCED_FACE('',(#1131),#1142,.F.);
#1131 = FACE_BOUND('',#1132,.F.);
#1132 = EDGE_LOOP('',(#1133,#1134,#1135,#1141));
#1133 = ORIENTED_EDGE('',*,*,#1103,.T.);
#1134 = ORIENTED_EDGE('',*,*,#871,.T.);
#1135 = ORIENTED_EDGE('',*,*,#1136,.F.);
#1136 = EDGE_CURVE('',#382,#872,#1137,.T.);
#1137 = LINE('',#1138,#1139);
#1138 = CARTESIAN_POINT('',(-6.,-11.,22.));
#1139 = VECTOR('',#1140,1.);
#1140 = DIRECTION('',(-0.,-0.,-1.));
#1141 = ORIENTED_EDGE('',*,*,#389,.F.);
#1142 = PLANE('',#1143);
#1143 = AXIS2_PLACEMENT_3D('',#1144,#1145,#1146);
#1144 = CARTESIAN_POINT('',(10.,-11.,22.));
#1145 = DIRECTION('',(0.,1.,0.));
#1146 = DIRECTION('',(-1.,0.,0.));
#1147 = ADVANCED_FACE('',(#1148),#1154,.F.);
#1148 = FACE_BOUND('',#1149,.F.);
#1149 = EDGE_LOOP('',(#1150,#1151,#1152,#1153));
#1150 = ORIENTED_EDGE('',*,*,#381,.F.);
#1151 = ORIENTED_EDGE('',*,*,#1136,.T.);
#1152 = ORIENTED_EDGE('',*,*,#879,.T.);
#1153 = ORIENTED_EDGE('',*,*,#1118,.T.);
#1154 = PLANE('',#1155);
#1155 = AXIS2_PLACEMENT_3D('',#1156,#1157,#1158);
#1156 = CARTESIAN_POINT('',(-6.,-11.,22.));
#1157 = DIRECTION('',(-1.,0.,0.));
#1158 = DIRECTION('',(0.,-1.,0.));
#1159 = ADVANCED_FACE('',(#1160),#1179,.F.);
#1160 = FACE_BOUND('',#1161,.F.);
#1161 = EDGE_LOOP('',(#1162,#1163,#1171,#1178));
#1162 = ORIENTED_EDGE('',*,*,#437,.F.);
#1163 = ORIENTED_EDGE('',*,*,#1164,.T.);
#1164 = EDGE_CURVE('',#438,#1165,#1167,.T.);
#1165 = VERTEX_POINT('',#1166);
#1166 = CARTESIAN_POINT('',(-15.6,0.,15.));
#1167 = LINE('',#1168,#1169);
#1168 = CARTESIAN_POINT('',(-15.6,0.,22.));
#1169 = VECTOR('',#1170,1.);
#1170 = DIRECTION('',(-0.,-0.,-1.));
#1171 = ORIENTED_EDGE('',*,*,#1172,.T.);
#1172 = EDGE_CURVE('',#1165,#1165,#1173,.T.);
#1173 = CIRCLE('',#1174,2.15);
#1174 = AXIS2_PLACEMENT_3D('',#1175,#1176,#1177);
#1175 = CARTESIAN_POINT('',(-17.75,0.,15.));
#1176 = DIRECTION('',(0.,0.,1.));
#1177 = DIRECTION('',(1.,0.,0.));
#1178 = ORIENTED_EDGE('',*,*,#1164,.F.);
#1179 = CYLINDRICAL_SURFACE('',#1180,2.15);
#1180 = AXIS2_PLACEMENT_3D('',#1181,#1182,#1183);
#1181 = CARTESIAN_POINT('',(-17.75,0.,22.));
#1182 = DIRECTION('',(0.,0.,1.));
#1183 = DIRECTION('',(1.,0.,0.));
#1184 = ADVANCED_FACE('',(#1185),#1204,.F.);
#1185 = FACE_BOUND('',#1186,.F.);
#1186 = EDGE_LOOP('',(#1187,#1188,#1196,#1203));
#1187 = ORIENTED_EDGE('',*,*,#448,.F.);
#1188 = ORIENTED_EDGE('',*,*,#1189,.T.);
#1189 = EDGE_CURVE('',#449,#1190,#1192,.T.);
#1190 = VERTEX_POINT('',#1191);
#1191 = CARTESIAN_POINT('',(19.9,0.,15.));
#1192 = LINE('',#1193,#1194);
#1193 = CARTESIAN_POINT('',(19.9,0.,22.));
#1194 = VECTOR('',#1195,1.);
#1195 = DIRECTION('',(-0.,-0.,-1.));
#1196 = ORIENTED_EDGE('',*,*,#1197,.T.);
#1197 = EDGE_CURVE('',#1190,#1190,#1198,.T.);
#1198 = CIRCLE('',#1199,2.15);
#1199 = AXIS2_PLACEMENT_3D('',#1200,#1201,#1202);
#1200 = CARTESIAN_POINT('',(17.75,0.,15.));
#1201 = DIRECTION('',(0.,0.,1.));
#1202 = DIRECTION('',(1.,0.,0.));
#1203 = ORIENTED_EDGE('',*,*,#1189,.F.);
#1204 = CYLINDRICAL_SURFACE('',#1205,2.15);
#1205 = AXIS2_PLACEMENT_3D('',#1206,#1207,#1208);
#1206 = CARTESIAN_POINT('',(17.75,0.,22.));
#1207 = DIRECTION('',(0.,0.,1.));
#1208 = DIRECTION('',(1.,0.,0.));
#1209 = ADVANCED_FACE('',(#1210),#1216,.T.);
#1210 = FACE_BOUND('',#1211,.T.);
#1211 = EDGE_LOOP('',(#1212,#1213,#1214,#1215));
#1212 = ORIENTED_EDGE('',*,*,#679,.T.);
#1213 = ORIENTED_EDGE('',*,*,#501,.T.);
#1214 = ORIENTED_EDGE('',*,*,#465,.F.);
#1215 = ORIENTED_EDGE('',*,*,#584,.F.);
#1216 = CYLINDRICAL_SURFACE('',#1217,1.);
#1217 = AXIS2_PLACEMENT_3D('',#1218,#1219,#1220);
#1218 = CARTESIAN_POINT('',(-49.,-30.,1.));
#1219 = DIRECTION('',(0.,1.,0.));
#1220 = DIRECTION('',(0.,0.,-1.));
#1221 = ADVANCED_FACE('',(#1222),#1228,.T.);
#1222 = FACE_BOUND('',#1223,.F.);
#1223 = EDGE_LOOP('',(#1224,#1225,#1226,#1227));
#1224 = ORIENTED_EDGE('',*,*,#750,.T.);
#1225 = ORIENTED_EDGE('',*,*,#569,.T.);
#1226 = ORIENTED_EDGE('',*,*,#524,.F.);
#1227 = ORIENTED_EDGE('',*,*,#664,.F.);
#1228 = CYLINDRICAL_SURFACE('',#1229,1.);
#1229 = AXIS2_PLACEMENT_3D('',#1230,#1231,#1232);
#1230 = CARTESIAN_POINT('',(49.,-30.,1.));
#1231 = DIRECTION('',(0.,1.,0.));
#1232 = DIRECTION('',(0.,0.,-1.));
#1233 = ADVANCED_FACE('',(#1234),#1252,.F.);
#1234 = FACE_BOUND('',#1235,.F.);
#1235 = EDGE_LOOP('',(#1236,#1237,#1238,#1246));
#1236 = ORIENTED_EDGE('',*,*,#600,.F.);
#1237 = ORIENTED_EDGE('',*,*,#797,.T.);
#1238 = ORIENTED_EDGE('',*,*,#1239,.T.);
#1239 = EDGE_CURVE('',#790,#1240,#1242,.T.);
#1240 = VERTEX_POINT('',#1241);
#1241 = CARTESIAN_POINT('',(-28.,11.,15.));
#1242 = LINE('',#1243,#1244);
#1243 = CARTESIAN_POINT('',(-28.,-89.,15.));
#1244 = VECTOR('',#1245,1.);
#1245 = DIRECTION('',(0.,1.,0.));
#1246 = ORIENTED_EDGE('',*,*,#1247,.F.);
#1247 = EDGE_CURVE('',#601,#1240,#1248,.T.);
#1248 = LINE('',#1249,#1250);
#1249 = CARTESIAN_POINT('',(-28.,11.,0.));
#1250 = VECTOR('',#1251,1.);
#1251 = DIRECTION('',(0.,0.,1.));
#1252 = PLANE('',#1253);
#1253 = AXIS2_PLACEMENT_3D('',#1254,#1255,#1256);
#1254 = CARTESIAN_POINT('',(-28.,-89.,0.));
#1255 = DIRECTION('',(-1.,0.,0.));
#1256 = DIRECTION('',(0.,1.,0.));
#1257 = ADVANCED_FACE('',(#1258),#1276,.F.);
#1258 = FACE_BOUND('',#1259,.F.);
#1259 = EDGE_LOOP('',(#1260,#1261,#1269,#1275));
#1260 = ORIENTED_EDGE('',*,*,#648,.F.);
#1261 = ORIENTED_EDGE('',*,*,#1262,.T.);
#1262 = EDGE_CURVE('',#641,#1263,#1265,.T.);
#1263 = VERTEX_POINT('',#1264);
#1264 = CARTESIAN_POINT('',(28.,11.,15.));
#1265 = LINE('',#1266,#1267);
#1266 = CARTESIAN_POINT('',(28.,11.,0.));
#1267 = VECTOR('',#1268,1.);
#1268 = DIRECTION('',(0.,0.,1.));
#1269 = ORIENTED_EDGE('',*,*,#1270,.T.);
#1270 = EDGE_CURVE('',#1263,#759,#1271,.T.);
#1271 = LINE('',#1272,#1273);
#1272 = CARTESIAN_POINT('',(28.,11.,15.));
#1273 = VECTOR('',#1274,1.);
#1274 = DIRECTION('',(0.,-1.,0.));
#1275 = ORIENTED_EDGE('',*,*,#758,.T.);
#1276 = PLANE('',#1277);
#1277 = AXIS2_PLACEMENT_3D('',#1278,#1279,#1280);
#1278 = CARTESIAN_POINT('',(28.,11.,0.));
#1279 = DIRECTION('',(1.,0.,0.));
#1280 = DIRECTION('',(0.,-1.,0.));
#1281 = ADVANCED_FACE('',(#1282),#1300,.F.);
#1282 = FACE_BOUND('',#1283,.F.);
#1283 = EDGE_LOOP('',(#1284,#1285,#1293,#1299));
#1284 = ORIENTED_EDGE('',*,*,#1247,.T.);
#1285 = ORIENTED_EDGE('',*,*,#1286,.T.);
#1286 = EDGE_CURVE('',#1240,#1287,#1289,.T.);
#1287 = VERTEX_POINT('',#1288);
#1288 = CARTESIAN_POINT('',(-7.5,11.,15.));
#1289 = LINE('',#1290,#1291);
#1290 = CARTESIAN_POINT('',(-28.,11.,15.));
#1291 = VECTOR('',#1292,1.);
#1292 = DIRECTION('',(1.,0.,0.));
#1293 = ORIENTED_EDGE('',*,*,#1294,.F.);
#1294 = EDGE_CURVE('',#609,#1287,#1295,.T.);
#1295 = LINE('',#1296,#1297);
#1296 = CARTESIAN_POINT('',(-7.5,11.,0.));
#1297 = VECTOR('',#1298,1.);
#1298 = DIRECTION('',(0.,0.,1.));
#1299 = ORIENTED_EDGE('',*,*,#608,.F.);
#1300 = PLANE('',#1301);
#1301 = AXIS2_PLACEMENT_3D('',#1302,#1303,#1304);
#1302 = CARTESIAN_POINT('',(-28.,11.,0.));
#1303 = DIRECTION('',(0.,1.,0.));
#1304 = DIRECTION('',(1.,0.,0.));
#1305 = ADVANCED_FACE('',(#1306),#1324,.F.);
#1306 = FACE_BOUND('',#1307,.F.);
#1307 = EDGE_LOOP('',(#1308,#1316,#1322,#1323));
#1308 = ORIENTED_EDGE('',*,*,#1309,.T.);
#1309 = EDGE_CURVE('',#633,#1310,#1312,.T.);
#1310 = VERTEX_POINT('',#1311);
#1311 = CARTESIAN_POINT('',(7.5,11.,15.));
#1312 = LINE('',#1313,#1314);
#1313 = CARTESIAN_POINT('',(7.5,11.,0.));
#1314 = VECTOR('',#1315,1.);
#1315 = DIRECTION('',(0.,0.,1.));
#1316 = ORIENTED_EDGE('',*,*,#1317,.T.);
#1317 = EDGE_CURVE('',#1310,#1263,#1318,.T.);
#1318 = LINE('',#1319,#1320);
#1319 = CARTESIAN_POINT('',(7.5,11.,15.));
#1320 = VECTOR('',#1321,1.);
#1321 = DIRECTION('',(1.,0.,0.));
#1322 = ORIENTED_EDGE('',*,*,#1262,.F.);
#1323 = ORIENTED_EDGE('',*,*,#640,.F.);
#1324 = PLANE('',#1325);
#1325 = AXIS2_PLACEMENT_3D('',#1326,#1327,#1328);
#1326 = CARTESIAN_POINT('',(7.5,11.,0.));
#1327 = DIRECTION('',(0.,1.,0.));
#1328 = DIRECTION('',(1.,0.,0.));
#1329 = ADVANCED_FACE('',(#1330),#1341,.F.);
#1330 = FACE_BOUND('',#1331,.F.);
#1331 = EDGE_LOOP('',(#1332,#1333,#1334,#1340));
#1332 = ORIENTED_EDGE('',*,*,#616,.F.);
#1333 = ORIENTED_EDGE('',*,*,#1294,.T.);
#1334 = ORIENTED_EDGE('',*,*,#1335,.T.);
#1335 = EDGE_CURVE('',#1287,#782,#1336,.T.);
#1336 = LINE('',#1337,#1338);
#1337 = CARTESIAN_POINT('',(-7.5,11.,15.));
#1338 = VECTOR('',#1339,1.);
#1339 = DIRECTION('',(0.,-1.,0.));
#1340 = ORIENTED_EDGE('',*,*,#781,.T.);
#1341 = PLANE('',#1342);
#1342 = AXIS2_PLACEMENT_3D('',#1343,#1344,#1345);
#1343 = CARTESIAN_POINT('',(-7.5,11.,0.));
#1344 = DIRECTION('',(1.,0.,0.));
#1345 = DIRECTION('',(0.,-1.,0.));
#1346 = ADVANCED_FACE('',(#1347),#1358,.F.);
#1347 = FACE_BOUND('',#1348,.F.);
#1348 = EDGE_LOOP('',(#1349,#1350,#1351,#1357));
#1349 = ORIENTED_EDGE('',*,*,#632,.F.);
#1350 = ORIENTED_EDGE('',*,*,#774,.T.);
#1351 = ORIENTED_EDGE('',*,*,#1352,.T.);
#1352 = EDGE_CURVE('',#767,#1310,#1353,.T.);
#1353 = LINE('',#1354,#1355);
#1354 = CARTESIAN_POINT('',(7.5,-89.,15.));
#1355 = VECTOR('',#1356,1.);
#1356 = DIRECTION('',(0.,1.,0.));
#1357 = ORIENTED_EDGE('',*,*,#1309,.F.);
#1358 = PLANE('',#1359);
#1359 = AXIS2_PLACEMENT_3D('',#1360,#1361,#1362);
#1360 = CARTESIAN_POINT('',(7.5,-89.,0.));
#1361 = DIRECTION('',(-1.,0.,0.));
#1362 = DIRECTION('',(0.,1.,0.));
#1363 = ADVANCED_FACE('',(#1364,#1370),#1373,.F.);
#1364 = FACE_BOUND('',#1365,.F.);
#1365 = EDGE_LOOP('',(#1366,#1367,#1368,#1369));
#1366 = ORIENTED_EDGE('',*,*,#1239,.F.);
#1367 = ORIENTED_EDGE('',*,*,#789,.T.);
#1368 = ORIENTED_EDGE('',*,*,#1335,.F.);
#1369 = ORIENTED_EDGE('',*,*,#1286,.F.);
#1370 = FACE_BOUND('',#1371,.F.);
#1371 = EDGE_LOOP('',(#1372));
#1372 = ORIENTED_EDGE('',*,*,#1172,.F.);
#1373 = PLANE('',#1374);
#1374 = AXIS2_PLACEMENT_3D('',#1375,#1376,#1377);
#1375 = CARTESIAN_POINT('',(0.,-39.,15.));
#1376 = DIRECTION('',(0.,0.,1.));
#1377 = DIRECTION('',(1.,0.,0.));
#1378 = ADVANCED_FACE('',(#1379),#1385,.F.);
#1379 = FACE_BOUND('',#1380,.F.);
#1380 = EDGE_LOOP('',(#1381,#1382,#1383,#1384));
#1381 = ORIENTED_EDGE('',*,*,#1024,.T.);
#1382 = ORIENTED_EDGE('',*,*,#1048,.T.);
#1383 = ORIENTED_EDGE('',*,*,#1063,.F.);
#1384 = ORIENTED_EDGE('',*,*,#703,.F.);
#1385 = PLANE('',#1386);
#1386 = AXIS2_PLACEMENT_3D('',#1387,#1388,#1389);
#1387 = CARTESIAN_POINT('',(-48.,-30.,8.));
#1388 = DIRECTION('',(0.,-2.2E-16,-1.));
#1389 = DIRECTION('',(1.,0.,0.));
#1390 = ADVANCED_FACE('',(#1391,#1397),#1400,.F.);
#1391 = FACE_BOUND('',#1392,.F.);
#1392 = EDGE_LOOP('',(#1393,#1394,#1395,#1396));
#1393 = ORIENTED_EDGE('',*,*,#1352,.F.);
#1394 = ORIENTED_EDGE('',*,*,#766,.T.);
#1395 = ORIENTED_EDGE('',*,*,#1270,.F.);
#1396 = ORIENTED_EDGE('',*,*,#1317,.F.);
#1397 = FACE_BOUND('',#1398,.F.);
#1398 = EDGE_LOOP('',(#1399));
#1399 = ORIENTED_EDGE('',*,*,#1197,.F.);
#1400 = PLANE('',#1401);
#1401 = AXIS2_PLACEMENT_3D('',#1402,#1403,#1404);
#1402 = CARTESIAN_POINT('',(0.,-39.,15.));
#1403 = DIRECTION('',(0.,0.,1.));
#1404 = DIRECTION('',(1.,0.,0.));
#1405 = ADVANCED_FACE('',(#1406),#1442,.T.);
#1406 = FACE_BOUND('',#1407,.T.);
#1407 = EDGE_LOOP('',(#1408,#1409,#1410,#1411,#1419,#1427,#1435,#1441));
#1408 = ORIENTED_EDGE('',*,*,#719,.T.);
#1409 = ORIENTED_EDGE('',*,*,#973,.F.);
#1410 = ORIENTED_EDGE('',*,*,#941,.F.);
#1411 = ORIENTED_EDGE('',*,*,#1412,.F.);
#1412 = EDGE_CURVE('',#1413,#942,#1415,.T.);
#1413 = VERTEX_POINT('',#1414);
#1414 = CARTESIAN_POINT('',(10.,-27.,22.));
#1415 = LINE('',#1416,#1417);
#1416 = CARTESIAN_POINT('',(10.,-27.,22.));
#1417 = VECTOR('',#1418,1.);
#1418 = DIRECTION('',(0.,1.,0.));
#1419 = ORIENTED_EDGE('',*,*,#1420,.F.);
#1420 = EDGE_CURVE('',#1421,#1413,#1423,.T.);
#1421 = VERTEX_POINT('',#1422);
#1422 = CARTESIAN_POINT('',(-6.,-27.,22.));
#1423 = LINE('',#1424,#1425);
#1424 = CARTESIAN_POINT('',(-6.,-27.,22.));
#1425 = VECTOR('',#1426,1.);
#1426 = DIRECTION('',(1.,0.,0.));
#1427 = ORIENTED_EDGE('',*,*,#1428,.F.);
#1428 = EDGE_CURVE('',#1429,#1421,#1431,.T.);
#1429 = VERTEX_POINT('',#1430);
#1430 = CARTESIAN_POINT('',(-6.,-22.,22.));
#1431 = LINE('',#1432,#1433);
#1432 = CARTESIAN_POINT('',(-6.,-11.,22.));
#1433 = VECTOR('',#1434,1.);
#1434 = DIRECTION('',(0.,-1.,0.));
#1435 = ORIENTED_EDGE('',*,*,#1436,.F.);
#1436 = EDGE_CURVE('',#1079,#1429,#1437,.T.);
#1437 = LINE('',#1438,#1439);
#1438 = CARTESIAN_POINT('',(-39.,-22.,22.));
#1439 = VECTOR('',#1440,1.);
#1440 = DIRECTION('',(1.,0.,0.));
#1441 = ORIENTED_EDGE('',*,*,#1086,.F.);
#1442 = PLANE('',#1443);
#1443 = AXIS2_PLACEMENT_3D('',#1444,#1445,#1446);
#1444 = CARTESIAN_POINT('',(-9.41E-15,-7.5,22.));
#1445 = DIRECTION('',(0.,0.,1.));
#1446 = DIRECTION('',(1.,0.,0.));
#1447 = ADVANCED_FACE('',(#1448),#1459,.F.);
#1448 = FACE_BOUND('',#1449,.F.);
#1449 = EDGE_LOOP('',(#1450,#1451,#1452,#1453));
#1450 = ORIENTED_EDGE('',*,*,#1436,.F.);
#1451 = ORIENTED_EDGE('',*,*,#1078,.T.);
#1452 = ORIENTED_EDGE('',*,*,#903,.T.);
#1453 = ORIENTED_EDGE('',*,*,#1454,.F.);
#1454 = EDGE_CURVE('',#1429,#904,#1455,.T.);
#1455 = LINE('',#1456,#1457);
#1456 = CARTESIAN_POINT('',(-6.,-22.,22.));
#1457 = VECTOR('',#1458,1.);
#1458 = DIRECTION('',(-0.,-0.,-1.));
#1459 = PLANE('',#1460);
#1460 = AXIS2_PLACEMENT_3D('',#1461,#1462,#1463);
#1461 = CARTESIAN_POINT('',(-39.,-22.,22.));
#1462 = DIRECTION('',(0.,-1.,0.));
#1463 = DIRECTION('',(1.,0.,0.));
#1464 = ADVANCED_FACE('',(#1465),#1476,.F.);
#1465 = FACE_BOUND('',#1466,.F.);
#1466 = EDGE_LOOP('',(#1467,#1468,#1469,#1470));
#1467 = ORIENTED_EDGE('',*,*,#1428,.F.);
#1468 = ORIENTED_EDGE('',*,*,#1454,.T.);
#1469 = ORIENTED_EDGE('',*,*,#911,.T.);
#1470 = ORIENTED_EDGE('',*,*,#1471,.F.);
#1471 = EDGE_CURVE('',#1421,#912,#1472,.T.);
#1472 = LINE('',#1473,#1474);
#1473 = CARTESIAN_POINT('',(-6.,-27.,22.));
#1474 = VECTOR('',#1475,1.);
#1475 = DIRECTION('',(-0.,-0.,-1.));
#1476 = PLANE('',#1477);
#1477 = AXIS2_PLACEMENT_3D('',#1478,#1479,#1480);
#1478 = CARTESIAN_POINT('',(-6.,-11.,22.));
#1479 = DIRECTION('',(-1.,0.,0.));
#1480 = DIRECTION('',(0.,-1.,0.));
#1481 = ADVANCED_FACE('',(#1482),#1493,.F.);
#1482 = FACE_BOUND('',#1483,.F.);
#1483 = EDGE_LOOP('',(#1484,#1485,#1486,#1492));
#1484 = ORIENTED_EDGE('',*,*,#1471,.T.);
#1485 = ORIENTED_EDGE('',*,*,#919,.T.);
#1486 = ORIENTED_EDGE('',*,*,#1487,.F.);
#1487 = EDGE_CURVE('',#1413,#920,#1488,.T.);
#1488 = LINE('',#1489,#1490);
#1489 = CARTESIAN_POINT('',(10.,-27.,22.));
#1490 = VECTOR('',#1491,1.);
#1491 = DIRECTION('',(-0.,-0.,-1.));
#1492 = ORIENTED_EDGE('',*,*,#1420,.F.);
#1493 = PLANE('',#1494);
#1494 = AXIS2_PLACEMENT_3D('',#1495,#1496,#1497);
#1495 = CARTESIAN_POINT('',(-6.,-27.,22.));
#1496 = DIRECTION('',(0.,-1.,0.));
#1497 = DIRECTION('',(1.,0.,0.));
#1498 = ADVANCED_FACE('',(#1499),#1505,.F.);
#1499 = FACE_BOUND('',#1500,.F.);
#1500 = EDGE_LOOP('',(#1501,#1502,#1503,#1504));
#1501 = ORIENTED_EDGE('',*,*,#1412,.F.);
#1502 = ORIENTED_EDGE('',*,*,#1487,.T.);
#1503 = ORIENTED_EDGE('',*,*,#927,.T.);
#1504 = ORIENTED_EDGE('',*,*,#951,.T.);
#1505 = PLANE('',#1506);
#1506 = AXIS2_PLACEMENT_3D('',#1507,#1508,#1509);
#1507 = CARTESIAN_POINT('',(10.,-27.,22.));
#1508 = DIRECTION('',(1.,0.,0.));
#1509 = DIRECTION('',(0.,1.,0.));
#1510 = ( GEOMETRIC_REPRESENTATION_CONTEXT(3) 
GLOBAL_UNCERTAINTY_ASSIGNED_CONTEXT((#1514)) 
GLOBAL_UNIT_ASSIGNED_CONTEXT((#1511,#1512,#1513)) REPRESENTATION_CONTEXT
('Context #1','3D Context with UNIT and UNCERTAINTY') );
#1511 = ( LENGTH_UNIT() NAMED_UNIT(*) SI_UNIT(.MILLI.,.METRE.) );
#1512 = ( NAMED_UNIT(*) PLANE_ANGLE_UNIT() SI_UNIT($,.RADIAN.) );
#1513 = ( NAMED_UNIT(*) SI_UNIT($,.STERADIAN.) SOLID_ANGLE_UNIT() );
#1514 = UNCERTAINTY_MEASURE_WITH_UNIT(LENGTH_MEASURE(1.E-05),#1511,
  'distance_accuracy_value','confusion accuracy');
#1515 = PRODUCT_RELATED_PRODUCT_CATEGORY('part',$,(#7));
#1516 = MECHANICAL_DESIGN_GEOMETRIC_PRESENTATION_REPRESENTATION('',(
    #1517),#1510);
#1517 = STYLED_ITEM('color',(#1518),#15);
#1518 = PRESENTATION_STYLE_ASSIGNMENT((#1519,#1525));
#1519 = SURFACE_STYLE_USAGE(.BOTH.,#1520);
#1520 = SURFACE_SIDE_STYLE('',(#1521));
#1521 = SURFACE_STYLE_FILL_AREA(#1522);
#1522 = FILL_AREA_STYLE('',(#1523));
#1523 = FILL_AREA_STYLE_COLOUR('',#1524);
#1524 = COLOUR_RGB('',0.678431390124,0.709803936702,0.741176476869);
#1525 = CURVE_STYLE('',#1526,POSITIVE_LENGTH_MEASURE(0.1),#1527);
#1526 = DRAUGHTING_PRE_DEFINED_CURVE_FONT('continuous');
#1527 = COLOUR_RGB('',9.803921802644E-02,9.803921802644E-02,
  9.803921802644E-02);
ENDSEC;
END-ISO-10303-21;
